<?xml version="1.0" encoding="UTF-8" ?>
<!DOCTYPE svg PUBLIC "-//W3C//DTD SVG 1.1//EN" "http://www.w3.org/Graphics/SVG/1.1/DTD/svg11.dtd">
<svg width="40pt" height="45pt" viewBox="0 0 40 45" version="1.1" xmlns="http://www.w3.org/2000/svg">
<path fill="#ffffff" d=" M 0.00 0.00 L 40.00 0.00 L 40.00 45.00 L 0.00 45.00 L 0.00 0.00 Z" />
<path fill="#a46c3a" d=" M 16.19 1.27 C 16.69 1.77 16.69 1.77 16.19 1.27 Z" />
<path fill="#a46c3a" d=" M 18.12 0.81 C 25.42 -0.03 33.28 3.77 36.63 10.43 C 38.16 13.18 38.51 16.37 38.72 19.46 C 35.71 17.95 37.12 12.41 33.21 11.98 C 30.17 14.27 34.31 17.44 35.88 19.33 C 35.25 24.67 34.21 30.59 30.06 34.40 C 28.73 34.11 28.01 33.30 27.91 31.97 C 27.03 26.74 29.87 21.83 29.50 16.66 C 26.40 19.64 25.74 24.04 23.67 27.64 C 22.00 30.93 19.72 33.86 17.06 36.40 C 18.56 29.97 21.45 23.21 19.52 16.58 C 18.86 14.01 16.16 13.95 14.00 14.11 C 11.98 12.26 8.61 10.25 9.62 7.01 C 10.21 4.16 13.16 3.08 15.54 2.16 C 15.61 4.46 14.24 7.21 16.10 9.09 C 16.71 6.84 17.37 4.59 18.58 2.59 C 18.46 2.14 18.23 1.25 18.12 0.81 Z" />
<path fill="#a46c3a" d=" M 2.76 11.72 C 4.01 8.55 6.50 6.17 8.74 3.70 C 8.05 5.36 6.92 6.98 7.07 8.85 C 7.70 11.40 10.24 12.72 12.04 14.37 C 11.69 15.65 11.32 16.92 10.99 18.20 C 12.02 17.50 13.04 16.78 14.04 16.02 C 13.94 19.12 14.31 22.63 12.19 25.20 C 9.91 28.25 5.22 29.03 2.28 26.47 C 2.61 22.23 5.95 19.83 9.38 18.03 C 5.14 17.47 1.24 20.71 1.35 25.04 C 1.51 20.59 0.88 15.91 2.76 11.72 Z" />
<path fill="#a46c3a" d=" M 34.49 14.14 C 34.64 14.28 34.64 14.28 34.49 14.14 Z" />
<path fill="#a46c3a" d=" M 15.00 14.48 C 16.61 14.95 17.99 16.11 17.94 17.93 C 18.65 24.70 15.68 31.03 14.44 37.54 C 20.01 37.56 22.15 31.53 25.08 27.83 C 25.14 31.34 26.63 34.96 30.49 35.55 C 28.60 36.36 26.65 37.07 24.80 38.00 C 23.06 39.17 21.96 41.17 20.01 42.06 C 17.44 40.76 16.01 37.74 13.02 37.06 C 8.60 35.65 5.46 32.12 2.85 28.46 C 8.42 30.23 15.13 26.79 16.22 20.90 C 17.00 18.67 15.66 16.55 15.00 14.48 Z" />
<path fill="#a46c3a" d=" M 37.09 19.62 C 38.37 19.98 38.85 20.78 38.55 22.01 C 38.23 26.45 36.09 30.73 32.72 33.64 C 35.00 29.26 36.58 24.55 37.09 19.62 Z" />
</svg>
