<svg width="672" height="818" xmlns="http://www.w3.org/2000/svg" preserveAspectRatio="xMidYMid meet">
 <metadata>Created by potrace 1.11, written by Peter Selinger 2001-2013</metadata>
 <g>
  <title>Layer 1</title>
  <g id="svg_1" fill="#000000" transform="translate(0,818) scale(0.10000000149011612,-0.10000000149011612) ">
   <path fill="#ffffff" stroke="#ffffff" id="svg_2" d="m3114,8170c-110,-9 -336,-39 -342,-45c-2,-2 6,-18 18,-35c30,-42 50,-112 50,-176l0,-52l-42,10c-24,5 -99,8 -168,5c-101,-3 -141,-9 -210,-32c-462,-149 -811,-612 -810,-1074c0,-157 38,-275 137,-424c48,-72 299,-333 424,-440l65,-56l55,14c103,28 258,39 358,26c418,-53 649,-345 727,-916c21,-157 24,-563 5,-780c-54,-621 -178,-1179 -471,-2124c-49,-159 -90,-296 -90,-304c0,-29 26,-40 67,-26c52,16 335,301 477,479c445,559 913,1434 1185,2217c135,388 242,602 358,719c59,58 97,77 155,78c54,0 92,-27 101,-72c3,-16 -15,-102 -43,-208c-117,-439 -234,-1010 -294,-1439c-65,-460 -72,-863 -19,-1100c62,-279 233,-388 445,-283c92,46 224,182 326,336c277,421 525,1161 626,1873c27,185 46,393 46,489l0,59l-128,128c-180,180 -328,377 -467,623c-85,150 -129,263 -121,316c13,96 94,208 188,259c75,41 142,41 229,-3c242,-118 425,-527 468,-1042c10,-114 11,-115 45,-145c46,-41 133,-92 195,-115l51,-20l0,70c0,114 -28,353 -62,520c-164,826 -630,1552 -1318,2057c-457,335 -993,545 -1580,618c-150,19 -496,27 -636,15zm172,-170c39,-19 74,-66 74,-100c0,-6 -24,-41 -54,-78c-208,-259 -332,-616 -353,-1014l-6,-127l-30,-7c-42,-9 -114,14 -138,45c-20,25 -21,34 -14,176c23,520 117,867 280,1032c46,46 74,65 111,76c66,21 81,20 130,-3z"/>
   <path fill="#ffffff" stroke="#ffffff" id="svg_3" d="m1475,7598c-356,-246 -658,-549 -894,-898c-318,-471 -508,-1002 -562,-1573c-17,-190 -7,-604 21,-782c20,-132 54,-301 66,-335c4,-9 23,21 50,79c187,397 562,689 974,756c110,17 237,20 277,4c40,-15 82,-57 104,-104c31,-67 27,-75 -35,-75c-30,0 -91,-7 -137,-16c-243,-46 -443,-150 -628,-328c-142,-137 -244,-287 -302,-448c-135,-367 -30,-648 280,-753c178,-61 462,-56 726,12c667,172 1085,759 1085,1523c0,287 -66,504 -221,730c-32,47 -86,116 -120,153c-70,77 -70,77 -125,-9c-66,-103 -95,-251 -57,-290c16,-16 15,-18 -15,-45c-43,-38 -91,-46 -139,-23c-56,28 -75,72 -70,162c6,104 63,218 159,315c67,68 69,72 50,86c-82,66 -401,342 -458,397c-251,244 -348,473 -315,746c7,55 24,140 37,187c45,159 164,376 278,509c67,78 61,82 -29,20z"/>
   <path fill="#ffffff" stroke="#ffffff" id="svg_4" d="m5837,6048c-14,-52 36,-201 124,-373c54,-107 197,-327 249,-385l31,-35l-6,50c-35,291 -146,586 -266,708c-48,47 -63,57 -92,57c-27,0 -36,-5 -40,-22z"/>
   <path fill="#ffffff" stroke="#ffffff" id="svg_5" d="m2400,5764c-14,-3 -31,-7 -39,-10c-8,-3 28,-45 98,-115c311,-312 444,-578 458,-915c34,-808 -621,-1558 -1519,-1738c-290,-59 -637,-55 -818,9l-42,15l17,-28c156,-244 454,-571 700,-768c309,-248 648,-436 1019,-563c130,-45 145,-48 122,-26c-17,18 -31,93 -23,132c3,16 53,168 112,338c286,833 464,1593 531,2265c24,234 24,639 1,785c-53,340 -168,528 -365,596c-56,20 -200,33 -252,23z"/>
   <path fill="#ffffff" stroke="#ffffff" id="svg_6" d="m6426,4738c-3,-18 -8,-76 -11,-128c-15,-225 -85,-653 -150,-912c-91,-361 -206,-690 -339,-972c-31,-65 -49,-112 -40,-105c36,29 178,217 267,351c304,456 484,957 542,1504c17,163 19,217 5,209c-14,-9 -125,22 -198,56c-36,16 -66,29 -68,29c-2,0 -5,-15 -8,-32z"/>
   <path fill="#ffffff" stroke="#ffffff" id="svg_7" d="m4286,3333c-391,-708 -809,-1298 -1116,-1571c-98,-88 -233,-183 -307,-216c-37,-16 -57,-36 -37,-36c3,0 63,-8 132,-17c160,-21 607,-24 762,-5c430,53 794,162 1160,348c119,60 203,111 139,83c-34,-14 -131,11 -224,59c-93,48 -205,161 -264,266c-81,143 -144,366 -172,606c-7,58 -12,214 -12,348c1,133 0,242 -1,242c-1,0 -28,-48 -60,-107z"/>
   <path fill="#ffffff" stroke="#ffffff" id="svg_8" d="m3734,965c-9,-48 -27,-62 -58,-42c-55,36 -143,57 -241,57c-244,0 -436,-139 -484,-351c-13,-57 -13,-221 0,-278c39,-169 175,-298 356,-336c221,-47 381,23 479,209c24,46 26,56 15,70c-21,25 -29,20 -61,-45c-67,-131 -154,-190 -284,-191c-92,-1 -147,17 -200,63c-85,75 -122,210 -113,413c8,191 53,300 149,363c36,25 53,28 132,31c75,3 101,0 150,-18c83,-31 140,-91 163,-169c13,-45 23,-61 36,-61c15,0 17,14 17,160l0,160l-25,0c-20,0 -25,-6 -31,-35z"/>
   <path fill="#ffffff" stroke="#ffffff" id="svg_9" d="m100,968c0,-8 19,-20 42,-28c32,-12 44,-22 51,-45c4,-17 6,-200 3,-410c-6,-423 -2,-397 -77,-410c-22,-4 -39,-12 -39,-20c0,-10 44,-15 188,-20c208,-9 312,1 385,35c207,97 193,371 -24,438c-55,17 -59,20 -35,26c41,10 103,72 122,121c11,31 15,64 12,109c-5,80 -39,135 -112,181l-49,30l-234,3c-189,2 -233,1 -233,-10zm408,-47c17,-12 43,-46 58,-76c24,-49 26,-64 22,-131c-8,-117 -57,-164 -170,-164l-58,0l0,194c0,177 2,195 18,200c34,10 101,-2 130,-23zm30,-453c78,-37 120,-139 102,-251c-14,-91 -66,-132 -185,-143c-54,-5 -73,-3 -82,7c-7,9 -14,92 -18,215l-7,202l73,-5c44,-3 91,-13 117,-25z"/>
   <path fill="#ffffff" stroke="#ffffff" id="svg_10" d="m1150,654c0,-3 16,-12 35,-20l35,-14l0,-264c0,-282 1,-278 -53,-291c-54,-14 -25,-25 71,-27c167,-5 229,0 276,20c124,55 140,224 26,282c-21,11 -47,20 -57,20c-12,0 -8,6 15,20c52,32 74,76 69,138c-3,41 -10,59 -33,83c-48,52 -78,59 -239,59c-80,0 -145,-2 -145,-6zm275,-36c75,-59 72,-200 -5,-227c-18,-6 -48,-11 -66,-11l-34,0l0,130l0,130l39,0c24,0 48,-8 66,-22zm24,-293c43,-22 65,-69 65,-138c1,-54 -2,-61 -31,-87c-21,-19 -48,-31 -79,-36c-77,-11 -79,-7 -82,151l-3,138l50,-6c28,-3 64,-13 80,-22z"/>
   <path fill="#ffffff" stroke="#ffffff" id="svg_11" d="m4710,428c-150,-340 -153,-345 -197,-358c-21,-7 -54,-10 -73,-8l-35,3l-3,277l-2,277l35,7c71,13 32,24 -85,24c-121,0 -148,-8 -87,-25l32,-10l3,-122l3,-123l-136,0l-136,0l3,122l3,122l38,9c69,17 37,27 -83,27c-115,0 -154,-11 -90,-25l30,-7l-2,-276l-3,-277l-32,-3c-22,-2 -33,-9 -33,-19c0,-10 6,-13 16,-9c9,3 65,6 125,6c71,0 108,4 104,10c-3,6 -16,10 -29,10c-41,0 -46,17 -46,152l0,128l135,0l135,0l0,-128c0,-135 -5,-152 -46,-152c-13,0 -26,-5 -29,-10c-4,-7 73,-10 224,-10c127,0 231,2 231,5c0,3 -16,12 -36,20c-26,11 -35,19 -30,31c3,9 25,61 49,115l42,99l96,0l96,0l37,-100c21,-55 36,-108 34,-118c-2,-9 -18,-21 -36,-27c-17,-5 -32,-13 -32,-17c0,-4 122,-8 271,-8c177,0 268,3 264,10c-3,5 -19,10 -34,10c-46,0 -51,14 -51,145l0,120l72,-3c60,-2 81,1 118,20c103,53 122,178 38,254c-52,48 -78,54 -243,54c-85,0 -155,-4 -155,-8c0,-4 15,-12 33,-17l32,-10l3,-272c2,-266 2,-272 -18,-278c-32,-10 -99,5 -126,28c-15,14 -65,118 -138,292c-89,212 -118,271 -133,273c-17,3 -35,-32 -123,-230zm773,180c40,-21 60,-123 36,-185c-23,-61 -83,-94 -144,-79l-25,6l0,134c0,132 0,135 23,138c29,5 87,-2 110,-14zm-608,-249c6,-18 0,-19 -74,-19l-80,0l42,100l41,100l33,-81c18,-45 35,-90 38,-100z"/>
   <path fill="#ffffff" stroke="#ffffff" id="svg_12" d="m850,641c0,-5 16,-12 35,-15l35,-7l0,-273c0,-298 2,-286 -56,-286c-13,0 -24,-4 -24,-10c0,-6 50,-10 130,-10c131,0 162,9 93,26l-38,9l0,269l0,270l33,8c65,17 31,28 -88,28c-66,0 -120,-4 -120,-9z"/>
   <path fill="#ffffff" stroke="#ffffff" id="svg_13" d="m1670,640c0,-5 10,-10 23,-10c13,0 31,-6 40,-12c16,-12 17,-38 15,-278l-3,-265l-42,-10c-23,-6 -45,-13 -49,-18c-4,-4 97,-7 224,-7c214,0 232,1 233,18c0,9 4,43 8,75c6,47 5,57 -7,55c-8,-2 -20,-20 -27,-41c-24,-69 -37,-77 -135,-77c-71,0 -89,3 -94,16c-3,9 -6,129 -6,268c0,267 2,276 47,276c13,0 23,5 23,10c0,6 -48,10 -125,10c-77,0 -125,-4 -125,-10z"/>
   <path fill="#ffffff" stroke="#ffffff" id="svg_14" d="m2190,642c0,-4 15,-12 33,-17l32,-10l0,-275l0,-275l-37,-3c-21,-2 -38,-7 -38,-13c0,-5 93,-9 230,-9l230,0l0,29c0,15 3,49 6,75c5,37 4,46 -8,46c-9,0 -20,-16 -26,-38c-7,-22 -23,-51 -36,-65c-23,-25 -31,-27 -110,-27c-74,0 -87,3 -96,19c-5,11 -10,74 -10,140l0,121l78,0c84,0 102,-9 116,-57c15,-48 26,-19 26,67c0,67 -3,90 -13,90c-7,0 -17,-15 -22,-32l-10,-33l-87,-3l-88,-3l0,126l0,125l95,0c90,0 97,-2 120,-26c13,-14 27,-39 30,-55c4,-16 13,-29 21,-29c11,0 14,16 14,70l0,70l-225,0c-124,0 -225,-4 -225,-8z"/>
   <path fill="#ffffff" stroke="#ffffff" id="svg_15" d="m5670,642c0,-4 15,-12 33,-17l32,-10l0,-275l0,-275l-37,-3c-21,-2 -38,-7 -38,-13c0,-5 93,-9 230,-9l230,0l0,29c0,15 3,49 6,75c5,37 4,46 -8,46c-9,0 -20,-16 -26,-38c-7,-22 -23,-51 -36,-65c-23,-25 -31,-27 -110,-27c-74,0 -87,3 -96,19c-5,11 -10,74 -10,140l0,121l78,0c84,0 102,-9 116,-57c15,-48 26,-19 26,67c0,67 -3,90 -13,90c-7,0 -17,-15 -22,-32l-10,-33l-87,-3l-88,-3l0,126l0,125l95,0c90,0 97,-2 120,-26c13,-14 27,-39 30,-55c4,-16 13,-29 21,-29c11,0 14,16 14,70l0,70l-225,0c-124,0 -225,-4 -225,-8z"/>
   <path fill="#ffffff" stroke="#ffffff" id="svg_16" d="m6180,640c0,-5 10,-10 23,-10c13,0 31,-6 40,-12c16,-12 17,-38 15,-278l-3,-265l-42,-10c-23,-6 -45,-13 -49,-18c-4,-4 97,-7 224,-7c214,0 232,1 233,18c0,9 4,43 8,75c6,47 5,57 -7,55c-8,-2 -20,-20 -27,-41c-24,-69 -37,-77 -135,-77c-71,0 -89,3 -94,16c-3,9 -6,129 -6,268c0,267 2,276 47,276c13,0 23,5 23,10c0,6 -48,10 -125,10c-77,0 -125,-4 -125,-10z"/>
  </g>
 </g>
</svg>